<svg width="100" height="74" viewBox="0 0 100 74" fill="none" xmlns="http://www.w3.org/2000/svg">
<path d="M48.9102 0.440475C48.9515 0.674232 49.034 1.29301 49.089 1.81554L49.1715 2.75057H48.7727C48.5527 2.75057 47.9889 2.66807 47.5214 2.55807L46.6551 2.37931V3.60311C46.6551 4.26314 46.6964 4.81316 46.7651 4.81316C46.8201 4.81316 47.3426 4.71691 47.9339 4.6069C48.5252 4.4969 49.0477 4.40065 49.089 4.40065C49.2127 4.40065 49.0065 6.44949 48.8552 6.72449C48.7864 6.862 48.5114 7.01326 48.2364 7.05451C47.3151 7.20577 46.0226 7.96205 45.1425 8.88334C43.1762 10.9322 42.7087 13.751 43.9462 16.2537C44.18 16.7212 44.4 17.1749 44.4275 17.2437C44.4687 17.3125 44.3037 17.2299 44.07 17.0649C43.2724 16.5012 40.5498 15.2774 39.436 14.9886C37.6072 14.5211 35.8746 14.3698 33.9633 14.5486C30.0168 14.9198 26.6617 16.2812 24.2966 18.4675L23.3615 19.3475L21.9452 18.6738C18.7001 17.1612 16.0874 16.5012 13.3373 16.5012C8.19456 16.5012 4.53689 18.5913 1.84177 23.074C-0.344585 26.7179 -0.592096 31.2968 1.14048 36.0545C2.33679 39.3409 5.40318 43.9199 9.08835 47.9213C11.5772 50.6301 12.1685 51.3589 12.6223 52.2665C13.1585 53.3115 13.4886 54.5216 13.6398 55.8966L13.7498 56.8592L13.2685 57.3954C11.5772 59.2793 11.8935 61.9331 13.9973 63.4594L14.7124 63.9682L14.8911 66.4708C14.9736 67.8321 15.0836 69.0009 15.1249 69.0697C15.1524 69.1247 15.3449 68.9734 15.5374 68.7534C16.0049 68.1897 17.8063 67.3371 19.6213 66.8421C24.4753 65.4808 31.9557 64.5457 41.9799 64.0645C45.7201 63.8857 58.5769 63.982 61.5745 64.202C71.9563 65.0133 77.8278 65.8933 81.6505 67.2409C83.0668 67.7496 83.8643 68.1897 84.4419 68.7672L84.8406 69.1797L84.9231 68.5197C84.9781 68.1622 85.0744 66.9934 85.1569 65.9346C85.2944 64.092 85.3219 63.9957 85.6657 63.7345C87.247 62.5519 87.7695 61.6581 87.7695 60.1731C87.7695 59.0593 87.412 58.138 86.6695 57.2992C86.2432 56.8042 86.2294 56.7629 86.3257 55.9379C86.6282 53.284 87.3707 51.7714 89.3921 49.5988C95.7586 42.7923 98.935 37.5671 99.8151 32.5344C100.145 30.7055 100.021 27.9692 99.5401 26.3603C98.1237 21.5889 94.7548 18.0962 90.4509 16.9137C88.9108 16.4874 85.8582 16.3912 84.0568 16.6937C82.4205 16.9824 80.0279 17.78 78.1303 18.66L76.6865 19.3475L75.9027 18.6188C72.1213 15.0986 65.851 13.6273 60.557 15.0161C59.2232 15.3599 57.4493 16.1299 56.4043 16.8037C55.9505 17.0924 55.5518 17.3262 55.5243 17.3262C55.4968 17.3262 55.648 17.0374 55.868 16.6662C56.4868 15.6761 56.7343 14.4661 56.6656 12.9535C56.5968 11.7985 56.5418 11.5647 56.0193 10.5197C55.153 8.77333 53.8054 7.65954 51.8528 7.08201C51.0003 6.8345 51.1103 7.08201 50.8353 5.01942L50.7528 4.4144L51.2753 4.48315C51.5778 4.5244 52.1141 4.62066 52.4716 4.68941C52.8291 4.75816 53.1867 4.81316 53.2692 4.81316C53.3517 4.81316 53.3929 4.34564 53.3654 3.60311C53.3379 2.69557 53.2829 2.42056 53.1454 2.44806C52.3479 2.61307 50.904 2.79182 50.849 2.72308C50.7803 2.65432 50.9453 1.34801 51.1378 0.371719L51.2203 0.000457764H50.024H48.8277L48.9102 0.440475ZM37.8547 20.2826C40.7836 20.9014 43.7125 22.9364 45.4313 25.5491C46.1738 26.6766 46.5726 27.6529 46.8614 29.028C47.1364 30.3205 47.3426 34.9545 47.3426 39.7672V43.8649H46.3113C44.5925 43.8649 40.5773 44.1399 37.0297 44.4974L33.6607 44.8411L33.1382 44.2499C30.2643 41.0185 26.6892 35.092 25.8229 32.1081C24.9016 29.0005 25.6166 25.5491 27.638 23.3765C29.9893 20.8326 34.2795 19.5263 37.8547 20.2826ZM67.2123 20.4201C70.7462 21.3551 72.9463 23.2115 74.1014 26.2641C74.4589 27.2266 74.4864 27.4329 74.5001 29.2892C74.5001 31.1318 74.4726 31.3793 74.1014 32.4519C73.5513 34.1157 71.97 37.1271 70.5125 39.3272C69.2061 41.3072 67.3086 43.8098 66.621 44.4561L66.2085 44.8549L64.4484 44.6349C61.8771 44.3324 57.6694 44.0024 54.9742 43.8924L52.6366 43.7961L52.6779 38.7771C52.7329 32.7819 52.8841 29.963 53.2417 28.5604C54.273 24.5728 57.8069 21.2864 62.1933 20.2688C63.1834 20.0351 66.1123 20.1176 67.2123 20.4201ZM15.6612 21.9327C16.2524 22.0427 17.05 22.2352 17.435 22.3589C18.48 22.7027 20.6664 23.679 20.6664 23.8027C20.6664 23.8715 20.5151 24.394 20.3226 24.9853C19.5801 27.2404 19.3601 30.2518 19.7864 32.4519C20.4601 36.0683 22.5365 40.0834 25.8229 44.1811C26.4829 45.0062 27.0054 45.6799 26.9779 45.7074C26.9504 45.7349 26.2079 45.8862 25.3416 46.0512C22.729 46.56 19.6488 47.2887 18.3975 47.715L17.2287 48.1138L16.3624 47.4125C15.0424 46.3262 11.4947 42.7098 10.3259 41.2522C8.88209 39.4372 7.71329 37.6221 6.7645 35.6832C4.82566 31.7368 4.7294 28.3954 6.46198 25.4528C7.43828 23.8165 9.39087 22.3727 11.2197 21.9189C12.2097 21.6851 14.3823 21.6851 15.6612 21.9327ZM89.4883 22.1389C90.6984 22.5927 92.0872 23.569 92.8022 24.449C95.5936 27.8729 95.4286 32.2181 92.2935 37.4571C90.2446 40.9085 87.0682 44.5386 83.3968 47.605L82.7918 48.1L81.8155 47.77C80.6054 47.3438 77.6215 46.6287 75.1189 46.1337C74.1014 45.9412 73.1801 45.7487 73.0838 45.7212C72.9738 45.6799 73.1938 45.3224 73.6889 44.7449C77.374 40.3997 79.6979 35.9308 80.2892 32.0118C80.6467 29.7292 80.3854 27.0891 79.5879 24.724L79.2579 23.7615L80.3854 23.239C82.9018 22.0977 84.5519 21.7264 86.9445 21.7814C88.3333 21.8089 88.8283 21.8777 89.4883 22.1389Z" fill="#181D27"/>
<path d="M45.9606 65.5493C36.0051 65.7831 25.7884 66.8419 20.7281 68.162C18.803 68.657 16.8092 69.4545 16.8092 69.7295C16.8092 69.8533 17.923 70.3208 19.2156 70.7333C23.1895 72.0121 31.4811 73.0434 40.8041 73.4284C45.0668 73.6072 55.5998 73.6072 59.5737 73.4284C67.5078 73.0709 75.3319 72.1771 79.2921 71.1733C80.8734 70.7608 82.9773 69.977 83.046 69.757C83.1285 69.537 82.0422 69.0145 80.4747 68.5057C75.827 67.0207 66.339 65.9206 55.3797 65.5906C51.1446 65.4668 49.6045 65.4531 45.9606 65.5493Z" fill="#181D27"/>
</svg>
