<svg width="40" height="30" viewBox="0 0 40 30" fill="none" xmlns="http://www.w3.org/2000/svg">
<path d="M19.5641 0.176115C19.5806 0.269621 19.6136 0.51713 19.6356 0.726141L19.6686 1.10016H19.5091C19.4211 1.10016 19.1956 1.06716 19.0086 1.02316L18.662 0.951651V1.44117C18.662 1.70518 18.6785 1.9252 18.706 1.9252C18.728 1.9252 18.9371 1.88669 19.1736 1.84269C19.4101 1.79869 19.6191 1.76019 19.6356 1.76019C19.6851 1.76019 19.6026 2.57973 19.5421 2.68973C19.5146 2.74473 19.4046 2.80524 19.2946 2.82174C18.9261 2.88224 18.409 3.18475 18.057 3.55327C17.2705 4.37281 17.0835 5.50036 17.5785 6.50141C17.672 6.68842 17.76 6.86992 17.771 6.89742C17.7875 6.92492 17.7215 6.89192 17.628 6.82592C17.309 6.60041 16.2199 6.11089 15.7744 5.99538C15.0429 5.80837 14.3498 5.74787 13.5853 5.81937C12.0067 5.96788 10.6647 6.51241 9.71863 7.38695L9.34461 7.73896L8.77808 7.46945C7.48002 6.86442 6.43497 6.60041 5.33492 6.60041C3.27782 6.60041 1.81476 7.43645 0.736707 9.22953C-0.137834 10.6871 -0.236839 12.5187 0.456194 14.4218C0.934716 15.7363 2.16127 17.5679 3.63534 19.1685C4.63089 20.252 4.8674 20.5435 5.04891 20.9066C5.26342 21.3246 5.39542 21.8086 5.45593 22.3586L5.49993 22.7436L5.30742 22.9582C4.63089 23.7117 4.75739 24.7732 5.59893 25.3838L5.88495 25.5873L5.95645 26.5883C5.98945 27.1329 6.03345 27.6004 6.04995 27.6279C6.06095 27.6499 6.13796 27.5894 6.21496 27.5014C6.40197 27.2759 7.1225 26.9348 7.84854 26.7368C9.79013 26.1923 12.7823 25.8183 16.792 25.6258C18.288 25.5543 23.4308 25.5928 24.6298 25.6808C28.7825 26.0053 31.1311 26.3573 32.6602 26.8963C33.2267 27.0998 33.5457 27.2759 33.7767 27.5069L33.9363 27.6719L33.9693 27.4079C33.9913 27.2649 34.0298 26.7973 34.0628 26.3738C34.1178 25.6368 34.1288 25.5983 34.2663 25.4938C34.8988 25.0208 35.1078 24.6632 35.1078 24.0692C35.1078 23.6237 34.9648 23.2552 34.6678 22.9197C34.4973 22.7216 34.4918 22.7051 34.5303 22.3751C34.6513 21.3136 34.9483 20.7086 35.7568 19.8395C38.3035 17.1169 39.574 15.0268 39.926 13.0137C40.058 12.2822 40.0085 11.1876 39.816 10.5441C39.2495 8.6355 37.9019 7.23844 36.1804 6.76542C35.5643 6.59491 34.3433 6.55641 33.6227 6.67741C32.9682 6.79292 32.0112 7.11193 31.2521 7.46395L30.6746 7.73896L30.3611 7.44745C28.8485 6.03938 26.3404 5.45086 24.2228 6.00638C23.6893 6.14389 22.9797 6.4519 22.5617 6.72142C22.3802 6.83692 22.2207 6.93043 22.2097 6.93043C22.1987 6.93043 22.2592 6.81492 22.3472 6.66641C22.5947 6.2704 22.6937 5.78637 22.6662 5.18134C22.6387 4.71932 22.6167 4.62582 22.4077 4.2078C22.0612 3.50927 21.5222 3.06375 20.7411 2.83274C20.4001 2.73373 20.4441 2.83274 20.3341 2.0077L20.3011 1.76569L20.5101 1.79319C20.6311 1.80969 20.8456 1.84819 20.9886 1.87569C21.1317 1.90319 21.2747 1.9252 21.3077 1.9252C21.3407 1.9252 21.3572 1.73819 21.3462 1.44117C21.3352 1.07816 21.3132 0.968151 21.2582 0.979153C20.9391 1.04515 20.3616 1.11666 20.3396 1.08916C20.3121 1.06166 20.3781 0.539133 20.4551 0.148615L20.4881 0.000108719H20.0096H19.5311L19.5641 0.176115ZM15.1419 8.11298C16.3134 8.36049 17.485 9.17453 18.1725 10.2196C18.4695 10.6706 18.629 11.0611 18.7445 11.6111C18.8545 12.1282 18.9371 13.9817 18.9371 15.9068V17.5459H18.5245C17.837 17.5459 16.2309 17.6559 14.8119 17.7989L13.4643 17.9364L13.2553 17.6999C12.1057 16.4074 10.6757 14.0368 10.3292 12.8432C9.96064 11.6001 10.2466 10.2196 11.0552 9.35054C11.9957 8.33299 13.7118 7.81047 15.1419 8.11298ZM26.8849 8.16798C28.2985 8.542 29.1785 9.28453 29.6406 10.5056C29.7836 10.8906 29.7946 10.9731 29.8001 11.7156C29.8001 12.4527 29.7891 12.5517 29.6406 12.9807C29.4205 13.6462 28.788 14.8508 28.205 15.7308C27.6825 16.5229 26.9234 17.5239 26.6484 17.7824L26.4834 17.9419L25.7794 17.8539C24.7508 17.7329 23.0677 17.6009 21.9897 17.5569L21.0547 17.5184L21.0712 15.5108C21.0932 13.1127 21.1537 11.9852 21.2967 11.4241C21.7092 9.82906 23.1227 8.5145 24.8773 8.10748C25.2733 8.01398 26.4449 8.04698 26.8849 8.16798ZM6.26446 8.77301C6.50097 8.81701 6.81999 8.89401 6.974 8.94352C7.39202 9.08102 8.26656 9.47154 8.26656 9.52104C8.26656 9.54855 8.20605 9.75756 8.12905 9.99406C7.83204 10.8961 7.74403 12.1007 7.91454 12.9807C8.18405 14.4273 9.01459 16.0333 10.3292 17.6724C10.5932 18.0024 10.8022 18.2719 10.7912 18.2829C10.7802 18.2939 10.4832 18.3544 10.1366 18.4205C9.0916 18.624 7.85954 18.9155 7.35901 19.086L6.89149 19.2455L6.54498 18.965C6.01695 18.5305 4.59789 17.0839 4.13036 16.5009C3.55284 15.7748 3.08532 15.0488 2.7058 14.2733C1.93026 12.6947 1.89176 11.3581 2.58479 10.1811C2.97531 9.52654 3.75635 8.94902 4.48788 8.76751C4.8839 8.67401 5.75294 8.674 6.26446 8.77301ZM35.7953 8.85551C36.2794 9.03702 36.8349 9.42754 37.1209 9.77956C38.2375 11.1491 38.1715 12.8872 36.9174 14.9828C36.0979 16.3634 34.8273 17.8154 33.3587 19.042L33.1167 19.24L32.7262 19.108C32.2422 18.9375 31.0486 18.6515 30.0476 18.4535C29.6406 18.3764 29.272 18.2994 29.2335 18.2884C29.1895 18.2719 29.2775 18.1289 29.4755 17.8979C30.9496 16.1598 31.8792 14.3723 32.1157 12.8047C32.2587 11.8917 32.1542 10.8356 31.8352 9.88956L31.7031 9.50454L32.1542 9.29553C33.1607 8.83901 33.8207 8.69051 34.7778 8.71251C35.3333 8.72351 35.5313 8.75101 35.7953 8.85551Z" fill="#16A34A"/>
<path d="M18.3856 26.2195C14.4035 26.313 10.3168 26.7366 8.29267 27.2646C7.52263 27.4626 6.7251 27.7816 6.7251 27.8916C6.7251 27.9411 7.17062 28.1281 7.68764 28.2931C9.27722 28.8047 12.5939 29.2172 16.323 29.3712C18.0281 29.4427 22.2413 29.4427 23.8309 29.3712C27.0045 29.2282 30.1342 28.8707 31.7183 28.4691C32.3508 28.3041 33.1923 27.9906 33.2198 27.9026C33.2528 27.8146 32.8183 27.6056 32.1913 27.4021C30.3322 26.8081 26.537 26.368 22.1533 26.236C20.4592 26.1865 19.8432 26.181 18.3856 26.2195Z" fill="#16A34A"/>
</svg>
